PathFileType	4	(X/Y/Z)	C:\Users\Basilio\Documents\Thesis Gigler\squatting_fais\c3dfiles\054\SLS_back_pre1\markers_experimental.trc
DataRate	CameraRate	NumFrames	NumMarkers	Units	OrigDataRate	OrigDataStartFrame	OrigNumFrames
200.000000	200.000000	4	61	mm	200.000000	1303	1738
Frame#	Time	FHD			LBHD			RBHD			C7			T10			CLAV			LSHO			LUUPA			LMUPA			LDUPA			LLEP			LMEP			LRAD			LUL			LRFIN			RSHO			RUPA1			RMUPA			RDUPA			RLEP			RMEP			RRAD			RUL			RUFIN			LASI			RASI			USACR			LSACR			RSACR			LTHI1			LTHI2			LTHI3			LTHI4			LLFC			LMFC			LTIB1			LTIB2			LTIB3			LTIB4			LLMAL			LMMAL			LHEE			LMT1			LMT2			LMT5			RTHI			RTHI2			RTHI3			RTHI4			RLFC			RMFC			RTIB1			RTIB2			RTIB3			RTIB4			RLMAL			RMMAL			RHEE			RMT1			RMT2			RMT5			
		X1	Y1	Z1	X2	Y2	Z2	X3	Y3	Z3	X4	Y4	Z4	X5	Y5	Z5	X6	Y6	Z6	X7	Y7	Z7	X8	Y8	Z8	X9	Y9	Z9	X10	Y10	Z10	X11	Y11	Z11	X12	Y12	Z12	X13	Y13	Z13	X14	Y14	Z14	X15	Y15	Z15	X16	Y16	Z16	X17	Y17	Z17	X18	Y18	Z18	X19	Y19	Z19	X20	Y20	Z20	X21	Y21	Z21	X22	Y22	Z22	X23	Y23	Z23	X24	Y24	Z24	X25	Y25	Z25	X26	Y26	Z26	X27	Y27	Z27	X28	Y28	Z28	X29	Y29	Z29	X30	Y30	Z30	X31	Y31	Z31	X32	Y32	Z32	X33	Y33	Z33	X34	Y34	Z34	X35	Y35	Z35	X36	Y36	Z36	X37	Y37	Z37	X38	Y38	Z38	X39	Y39	Z39	X40	Y40	Z40	X41	Y41	Z41	X42	Y42	Z42	X43	Y43	Z43	X44	Y44	Z44	X45	Y45	Z45	X46	Y46	Z46	X47	Y47	Z47	X48	Y48	Z48	X49	Y49	Z49	X50	Y50	Z50	X51	Y51	Z51	X52	Y52	Z52	X53	Y53	Z53	X54	Y54	Z54	X55	Y55	Z55	X56	Y56	Z56	X57	Y57	Z57	X58	Y58	Z58	X59	Y59	Z59	X60	Y60	Z60	X61	Y61	Z61	

1304	6.515000000000001	-96.08522796630862	1708.5537109375	-1093.8642578125	-262.6631164550782	1655.411865234375	-1158.963012695313	-273.6050109863282	1657.837768554688	-1019.024658203125	-310.2721862792969	1498.543701171875	-1072.899658203125	-402.6192626953126	1187.815063476563	-1050.843872070313	-175.217041015625	1422.232299804688	-1083.64501953125	-250.2754974365235	1489.40234375	-1226.164916992188	-105.1185913085938	1375.18896484375	-1349.798461914063	-73.25294494628908	1409.723510742188	-1335.417602539063	-36.53956985473634	1368.417358398438	-1360.298706054688	22.51025199890137	1373.40576171875	-1356.301879882813	24.6534767150879	1307.341674804688	-1312.049072265625	269.2006530761719	1413.210083007813	-1255.101684570313	294.1140441894532	1381.721557617188	-1322.6123046875	361.7821350097657	1439.943359375	-1267.234619140625	-230.6960449218751	1493.131469726563	-938.4429931640627	-78.65657806396486	1383.302978515625	-809.2924804687502	-43.57456588745118	1413.202514648438	-823.180358886719	-10.70874309539795	1366.384033203125	-800.411315917969	34.25312805175782	1359.774169921875	-803.937194824219	28.70730590820313	1303.460815429688	-854.499938964844	287.1212158203126	1421.59375	-928.340759277344	298.4127197265626	1387.806640625	-856.7117919921877	361.9965820312501	1455.082885742188	-920.4082031250002	-265.1656799316407	978.7190551757815	-1163.141723632813	-259.3917846679688	990.6077270507815	-915.9660644531252	-426.6407165527345	1106.236083984375	-1041.860961914063	-440.6554260253907	1075.348754882813	-1068.710327148438	-438.103240966797	1077.064453125	-1010.984741210938	-314.5785522460938	748.0826416015626	-1239.509521484375	-257.0464782714844	685.7449340820314	-1235.622314453125	-213.7643737792969	704.8079833984376	-1230.911743164063	-264.3854370117188	628.1520996093751	-1216.3525390625	-213.1402893066407	490.3530883789064	-1183.68359375	-174.0354461669922	506.7721557617189	-1052.100708007813	-205.6910095214844	335.7078247070313	-1107.052368164063	-267.8898925781251	294.8440246582032	-1156.166015625	-231.6634368896485	287.4897155761719	-1129.2744140625	-259.4175720214844	222.9386901855469	-1082.01611328125	-354.4524536132813	105.6506042480469	-1098.10498046875	-320.6401977539063	135.0719451904297	-1010.346435546875	-425.2672729492189	101.4006729125977	-1035.900146484375	-214.826644897461	56.97219848632814	-1012.726745605469	-206.7621765136719	52.93898010253908	-1061.855590820313	-258.5020751953126	35.42793655395509	-1112.960327148438	-318.6885681152344	703.6473388671876	-807.6057739257815	-271.5216369628907	655.6651000976564	-801.9654541015627	-238.7041473388672	659.5726318359376	-807.5466308593752	-288.9531860351563	573.7032470703126	-814.790466308594	-304.0493469238282	518.5130615234376	-821.109069824219	-240.5194854736329	495.1087341308595	-944.7066040039065	-360.8401794433594	425.6461791992189	-849.5284423828127	-459.3063354492189	465.4676208496095	-832.8145751953127	-448.261444091797	422.4581298828126	-846.6995239257815	-483.8213195800782	396.689422607422	-884.6337890625002	-668.8416137695314	398.696014404297	-904.2232666015627	-621.3615722656251	374.0914611816407	-984.2265625000002	-686.5256958007814	462.478729248047	-964.8064575195315	-683.2139892578126	242.1702423095704	-1002.699096679688	-695.0495605468751	234.5052642822266	-955.3479003906252	-734.0419311523439	276.0119323730469	-916.0107421875002	
1305	6.52	-97.0083923339844	1710.471435546875	-1093.838989257813	-260.8080444335938	1657.34765625	-1159.009765625	-274.3573608398438	1659.719604492188	-1019.022705078125	-311.0752258300782	1500.265380859375	-1072.909301757813	-402.6047668457032	1189.2548828125	-1050.896362304688	-175.8048706054688	1424.0517578125	-1083.610595703125	-250.9608612060547	1491.026489257813	-1226.167358398438	-105.7129974365235	1376.701416015625	-1349.623779296875	-73.83434295654298	1411.666870117188	-1335.517211914063	-37.30303955078126	1369.819946289063	-1360.060302734375	21.80250930786133	1374.81982421875	-1356.152587890625	24.09860610961915	1308.814331054688	-1311.658081054688	268.6462402343751	1414.789184570313	-1254.86572265625	293.0928649902344	1383.338256835938	-1322.449096679688	361.3917236328126	1441.1787109375	-1267.306396484375	-231.3082885742188	1494.90625	-938.3782348632815	-79.12719726562501	1385.030517578125	-809.3647460937502	-44.17436218261719	1414.785034179688	-823.0936279296877	-11.28124618530274	1367.826293945313	-800.4690551757815	33.6197738647461	1361.46875	-803.9978637695315	28.24253082275391	1304.951538085938	-854.7293090820315	286.2235107421876	1422.959228515625	-928.2282714843752	297.8390808105469	1389.294189453125	-856.841003417969	361.1178894042969	1456.34423828125	-920.5049438476565	-264.6635742187501	980.2554321289065	-1163.113525390625	-258.9573059082032	992.268493652344	-915.8519287109377	-426.6842651367189	1107.556396484375	-1041.849365234375	-440.5366210937501	1076.654541015625	-1068.61376953125	-437.8113708496095	1078.330810546875	-1010.997436523438	-314.7463073730469	749.2398071289064	-1239.308959960938	-257.3985900878907	686.5885009765626	-1235.512329101563	-214.4048461914063	705.3598022460939	-1230.614135742188	-265.2882385253907	629.0597534179689	-1215.950805664063	-214.2140045166016	490.9424743652345	-1183.504150390625	-174.979736328125	507.0960998535157	-1051.84130859375	-206.2261047363282	336.1060485839844	-1107.088745117188	-268.6599121093751	295.2916259765626	-1156.0771484375	-232.7508697509766	287.7202453613282	-1129.342163085938	-259.7341918945313	223.4436187744141	-1082.106079101563	-354.5920410156251	105.6479034423828	-1098.048461914063	-320.6772460937501	135.081283569336	-1010.338623046875	-425.1895141601564	101.2571640014649	-1035.964599609375	-214.8523559570313	56.97925567626955	-1012.738647460938	-206.770004272461	52.89160537719728	-1061.849365234375	-258.2285766601563	35.35491561889649	-1112.910400390625	-317.8173828125001	705.4846191406251	-807.2153930664065	-270.5467834472657	657.5216064453126	-801.6618652343752	-237.7425994873047	661.3663330078126	-807.0430908203127	-287.9881286621094	575.6239013671876	-814.1860351562502	-302.4302368164063	520.1027832031251	-820.6793212890627	-239.7228393554688	496.650115966797	-944.047058105469	-359.4825134277344	427.3675842285157	-849.0875244140627	-457.9328613281251	466.761932373047	-832.5054321289065	-446.7920532226564	423.7605895996095	-845.920349121094	-482.3528747558595	398.0509643554689	-884.0056152343752	-667.1138916015626	399.2756652832032	-904.0101318359377	-619.5488891601564	374.9078979492188	-983.8347167968752	-685.0839233398439	463.1928100585939	-964.5935058593752	-680.8218994140626	242.9923553466797	-1002.505004882813	-692.4494018554689	235.1367340087891	-955.3853149414065	-732.0416870117189	276.6556091308594	-915.5721435546877	
1306	6.525	-97.6630783081055	1712.404663085938	-1093.859008789063	-261.4342956542969	1659.181274414063	-1159.024291992188	-274.9043579101563	1661.74072265625	-1019.002197265625	-311.7611999511719	1501.909301757813	-1072.91748046875	-402.5061035156251	1190.612670898438	-1050.942749023438	-176.3893737792969	1426.155883789063	-1083.535400390625	-251.6658935546876	1492.7890625	-1226.174194335938	-106.4706039428711	1378.214965820313	-1349.487182617188	-74.38946533203126	1412.720825195313	-1335.25146484375	-37.91404342651368	1371.56298828125	-1359.976196289063	21.1848316192627	1376.330200195313	-1355.933349609375	23.27985191345215	1310.412841796875	-1311.503295898438	268.0774230957032	1416.140502929688	-1254.851440429688	292.2693481445313	1384.574951171875	-1322.214477539063	360.5956115722657	1442.780639648438	-1267.13818359375	-232.325912475586	1496.660034179688	-938.263122558594	-80.23361206054689	1386.692504882813	-809.2012329101565	-44.92972564697266	1416.328002929688	-822.9656372070315	-11.93242073059082	1369.417358398438	-800.3972778320315	32.7976303100586	1362.875366210938	-804.016540527344	27.19909858703614	1306.3759765625	-854.6619262695315	286.1016845703126	1424.185302734375	-928.568298339844	296.8770141601563	1390.545654296875	-856.8498535156252	360.4968566894532	1457.626342773438	-920.5350341796877	-264.0132751464844	981.9190063476565	-1163.0107421875	-258.4868164062501	994.2050781250002	-915.696960449219	-426.1549377441407	1108.864990234375	-1041.879028320313	-439.9761657714845	1077.958618164063	-1068.488891601563	-437.6979980468751	1079.725830078125	-1010.925964355469	-315.4012756347657	750.4829711914064	-1239.132934570313	-257.8831481933594	687.4573364257814	-1235.243286132813	-214.6982421875001	706.0408325195314	-1230.38134765625	-265.8263244628907	629.9183349609376	-1215.70703125	-215.8450469970704	491.6426086425782	-1183.1708984375	-176.224105834961	507.4993896484376	-1051.581420898438	-207.1225891113282	336.6668090820313	-1106.946044921875	-269.2057189941407	295.7564392089844	-1155.9111328125	-233.2550354003907	288.2128295898438	-1129.105590820313	-260.2062683105469	223.7139587402344	-1082.050170898438	-354.5956420898438	105.6649703979492	-1098.049926757813	-320.7420043945313	135.075424194336	-1010.27783203125	-425.2989807128907	101.3521347045899	-1035.883422851563	-214.6814880371094	56.96600723266603	-1012.725830078125	-206.6401062011719	52.9083709716797	-1061.847290039063	-258.1611938476563	35.36910629272462	-1112.898559570313	-316.7304382324219	707.0017089843751	-806.6621704101565	-269.5408630371094	659.3791503906251	-801.181335449219	-236.3892364501954	663.2101440429689	-806.720642089844	-286.6671752929688	577.3909301757814	-813.8982543945315	-301.3332824707032	522.0556640625001	-820.0801391601565	-238.6619873046876	498.378143310547	-943.367126464844	-357.8004150390626	428.7998352050782	-848.3199462890627	-456.5152282714845	468.1716308593751	-831.8902587890627	-445.2175292968751	425.1621093750001	-845.6726684570315	-480.5896606445314	399.2709045410157	-883.5352783203127	-665.4732055664064	400.069305419922	-903.6348876953127	-617.8645019531251	375.7162170410157	-983.386657714844	-683.4381713867189	463.7281494140626	-964.3443603515627	-678.9096679687501	243.9317626953126	-1001.917785644531	-690.4967041015626	235.9043731689454	-954.5811157226565	-730.0914306640626	277.2767333984376	-915.1849365234377	
1307	6.53	-98.32437896728518	1714.229736328125	-1093.874755859375	-262.0796508789063	1661.033569335938	-1158.9716796875	-275.6036071777344	1663.533325195313	-1019.033325195313	-312.5526123046876	1503.73583984375	-1072.833618164063	-402.4091796875001	1191.858764648438	-1050.947265625	-177.2205047607422	1428.139038085938	-1083.538330078125	-252.3002166748047	1494.442993164063	-1226.263427734375	-106.8512573242188	1379.662963867188	-1349.437377929688	-75.14308166503908	1414.135009765625	-1335.178466796875	-38.48681259155274	1372.834838867188	-1359.7978515625	20.53386497497559	1377.7724609375	-1355.7802734375	22.3613567352295	1311.959838867188	-1310.956176757813	267.4201965332032	1417.803955078125	-1254.591674804688	292.3527221679688	1385.916748046875	-1322.1845703125	359.7611389160157	1444.20166015625	-1267.065185546875	-232.938705444336	1498.421752929688	-938.2366333007815	-80.94869232177736	1388.158081054688	-809.2366333007815	-45.64810943603516	1417.8896484375	-823.0836181640627	-12.90105342864991	1370.862060546875	-800.2776489257815	31.86424827575684	1364.417724609375	-803.8616943359377	26.19439888000489	1307.997436523438	-854.539001464844	284.6921997070313	1425.6953125	-928.358581542969	296.0953979492188	1391.945190429688	-856.919372558594	359.8280334472657	1458.936157226563	-920.6824340820315	-263.6272888183594	983.3872070312502	-1162.85009765625	-257.9279174804688	996.0200195312502	-915.639587402344	-426.1644897460939	1110.273681640625	-1041.850341796875	-439.9727172851564	1079.194702148438	-1068.34375	-437.3567199707032	1081.0732421875	-1010.937133789063	-314.9947814941407	751.5321044921876	-1238.840454101563	-258.4689636230469	688.4641113281251	-1234.985961914063	-215.0115051269532	706.8310546875001	-1230.1123046875	-266.6739196777344	630.9557495117189	-1215.43798828125	-216.7706909179688	492.0898742675782	-1182.920532226563	-177.4151306152344	508.061981201172	-1051.482177734375	-207.9478912353516	336.9450073242188	-1106.655395507813	-270.0148010253907	296.2669067382813	-1155.715454101563	-233.6702728271485	288.4723510742188	-1129.01904296875	-260.4918518066407	223.9336242675782	-1081.97900390625	-354.6427612304688	105.6932449340821	-1097.9716796875	-320.8031616210938	135.0499572753907	-1010.231628417969	-425.3333129882814	101.3456192016602	-1035.852294921875	-214.8599700927735	56.90403366088869	-1012.777587890625	-206.6912536621094	52.93770599365236	-1061.843627929688	-258.5084533691407	35.43551635742188	-1112.968872070313	-315.9739685058594	708.9185180664064	-806.3947753906252	-268.4274902343751	661.3142089843751	-800.707214355469	-235.5568389892579	665.2087402343751	-806.282653808594	-285.4943542480469	579.2162475585939	-813.2146606445315	-299.8193664550782	523.6954345703126	-819.4885864257815	-237.139877319336	500.1256408691407	-942.736755371094	-356.3351135253907	430.4050292968751	-848.0189208984377	-455.0407104492189	469.4858703613282	-831.6502685546877	-443.4533996582032	426.5185546875001	-845.0855712890627	-479.0670166015626	400.5901184082032	-883.0789184570315	-663.8556518554689	400.9384155273439	-903.2517700195315	-616.0148315429689	376.5821533203126	-982.9749145507815	-682.0288696289064	464.4341125488282	-964.0537109375002	-676.9864501953126	244.2635498046876	-1001.315246582031	-688.6166992187501	236.3391723632813	-954.1298828125002	-728.2686157226564	277.8471984863282	-914.6290283203127	
